<?xml version="1.0" standalone="no"?>
<!DOCTYPE svg PUBLIC "-//W3C//DTD SVG 20010904//EN"
 "http://www.w3.org/TR/2001/REC-SVG-20010904/DTD/svg10.dtd">
<svg version="1.0" xmlns="http://www.w3.org/2000/svg"
 width="389.000000pt" height="117.000000pt" viewBox="0 0 389.000000 117.000000"
 preserveAspectRatio="xMidYMid meet">

<g transform="translate(0.000000,117.000000) scale(0.100000,-0.100000)"
fill="#FF4500" stroke="none">
<path d="M2290 1031 c-16 -31 4 -63 37 -59 34 4 52 32 37 56 -16 26 -60 28
-74 3z"/>
<path d="M2412 998 c-7 -7 -12 -19 -12 -28 0 -38 16 -40 297 -40 212 0 273 -3
273 -12 0 -7 -27 -116 -58 -243 l-58 -230 -209 -3 c-115 -1 -213 2 -217 6 -6
6 -5 36 1 73 6 35 14 78 17 96 l5 32 132 3 132 3 0 30 c0 30 0 30 -70 36 -127
12 -242 10 -252 -3 -12 -16 -64 -328 -57 -340 3 -4 130 -8 283 -8 214 0 281 3
289 13 8 10 162 600 162 622 0 3 -145 5 -323 5 -238 0 -326 -3 -335 -12z"/>
<path d="M3218 1003 c57 -2 147 -2 200 0 53 1 7 3 -103 3 -110 0 -154 -2 -97
-3z"/>
<path d="M1710 635 l0 -305 40 0 40 0 0 170 0 170 111 0 c109 0 111 0 140 -29
l29 -29 0 -142 0 -141 43 3 42 3 3 100 c6 177 -11 237 -81 289 -24 18 -47 22
-155 26 l-127 5 -3 93 -3 92 -39 0 -40 0 0 -305z"/>
<path d="M3178 933 c45 -2 119 -2 165 0 45 1 8 3 -83 3 -91 0 -128 -2 -82 -3z"/>
<path d="M442 730 c-18 -11 -40 -36 -48 -55 -19 -47 -19 -212 1 -263 26 -64
51 -72 229 -72 l156 0 0 35 0 35 -138 0 c-160 0 -182 8 -182 66 l0 34 130 0
c147 0 179 10 200 60 19 46 8 117 -24 149 -25 25 -31 26 -159 29 -119 2 -135
1 -165 -18z m244 -56 c33 -9 48 -51 29 -80 -15 -23 -20 -24 -136 -24 l-120 0
3 42 c2 34 8 45 28 55 25 13 157 18 196 7z"/>
<path d="M1259 722 c-59 -53 -48 -161 21 -197 20 -10 59 -15 123 -15 80 0 96
-3 111 -19 23 -25 13 -59 -21 -72 -13 -5 -78 -9 -144 -9 l-119 0 0 -40 0 -40
135 0 c188 0 234 22 242 117 8 98 -40 133 -182 133 -49 0 -95 4 -101 8 -17 11
-22 35 -13 60 8 21 12 22 144 22 l135 0 0 40 0 40 -150 0 c-150 0 -150 0 -181
-28z"/>
<path d="M3148 734 c-24 -13 -48 -42 -48 -58 0 -3 65 -6 145 -6 139 0 147 -1
169 -23 45 -45 42 -170 -5 -213 -19 -17 -37 -19 -175 -18 l-154 0 0 -128 0
-128 40 0 40 0 0 85 0 85 109 0 c122 0 163 10 207 52 85 80 70 282 -25 345
-31 21 -46 23 -155 23 -87 -1 -129 -5 -148 -16z"/>
<path d="M872 589 l3 -41 140 0 140 -1 3 41 3 42 -146 0 -146 0 3 -41z"/>
<path d="M2450 316 c-27 -33 18 -72 48 -42 13 13 14 20 6 34 -15 23 -38 26
-54 8z"/>
<path d="M2740 315 c-26 -31 18 -71 47 -43 12 12 13 20 4 37 -14 25 -34 27
-51 6z"/>
<path d="M2530 303 c0 -5 24 -7 52 -5 95 5 104 9 26 11 -43 0 -78 -2 -78 -6z"/>
<path d="M2695 300 c3 -5 8 -10 11 -10 2 0 4 5 4 10 0 6 -5 10 -11 10 -5 0 -7
-4 -4 -10z"/>
</g>
</svg>
